REM DIRINDEX 1\2,1\3,1\4,1\5
REM DIRNAME cjc100,folder01,folder02,folder03,folder04
TITLE ""
FILE "CD2Track17.mp3" MP3
  TRACK 01 AUDIO
    TITLE "0:"
    INDEX 01 00:00:00
  TRACK 02 AUDIO
    TITLE "2:cjc100_1679"
    INDEX 01 00:00:29
  TRACK 03 AUDIO
    TITLE "2:cjc100_1680"
    INDEX 01 00:01:46
  TRACK 04 AUDIO
    TITLE "0:"
    INDEX 01 00:08:64
  TRACK 05 AUDIO
    TITLE "2:cjc100_1681"
    INDEX 01 00:09:40
  TRACK 06 AUDIO
    TITLE "2:cjc100_1682"
    INDEX 01 00:10:65
  TRACK 07 AUDIO
    TITLE "0:"
    INDEX 01 00:16:44
  TRACK 08 AUDIO
    TITLE "2:cjc100_1683"
    INDEX 01 00:17:18
  TRACK 09 AUDIO
    TITLE "2:cjc100_1684"
    INDEX 01 00:18:48
  TRACK 10 AUDIO
    TITLE "0:"
    INDEX 01 00:25:29
  TRACK 11 AUDIO
    TITLE "2:cjc100_1685"
    INDEX 01 00:25:62
  TRACK 12 AUDIO
    TITLE "2:cjc100_1686"
    INDEX 01 00:27:12
  TRACK 13 AUDIO
    TITLE "0:"
    INDEX 01 00:34:43
  TRACK 14 AUDIO
    TITLE "2:cjc100_1687"
    INDEX 01 00:35:08
  TRACK 15 AUDIO
    TITLE "2:cjc100_1688"
    INDEX 01 00:36:29
  TRACK 16 AUDIO
    TITLE "0:"
    INDEX 01 00:41:14
  TRACK 17 AUDIO
    TITLE "2:cjc100_1689"
    INDEX 01 00:41:59
  TRACK 18 AUDIO
    TITLE "2:cjc100_1690"
    INDEX 01 00:42:72
  TRACK 19 AUDIO
    TITLE "0:"
    INDEX 01 00:48:08
  TRACK 20 AUDIO
    TITLE "2:cjc100_1691"
    INDEX 01 00:48:49
  TRACK 21 AUDIO
    TITLE "2:cjc100_1692"
    INDEX 01 00:49:69
  TRACK 22 AUDIO
    TITLE "0:"
    INDEX 01 00:54:23
  TRACK 23 AUDIO
    TITLE "2:cjc100_1693"
    INDEX 01 00:54:64
  TRACK 24 AUDIO
    TITLE "2:cjc100_1694"
    INDEX 01 00:56:35
  TRACK 25 AUDIO
    TITLE "0:"
    INDEX 01 01:02:24
  TRACK 26 AUDIO
    TITLE "2:cjc100_1695"
    INDEX 01 01:02:71
  TRACK 27 AUDIO
    TITLE "2:cjc100_1696"
    INDEX 01 01:04:09
  TRACK 28 AUDIO
    TITLE "0:"
    INDEX 01 01:09:14
  TRACK 29 AUDIO
    TITLE "2:cjc100_1697"
    INDEX 01 01:09:59
  TRACK 30 AUDIO
    TITLE "2:cjc100_1698"
    INDEX 01 01:10:71
  TRACK 31 AUDIO
    TITLE "0:"
    INDEX 01 01:16:73
  TRACK 32 AUDIO
    TITLE "2:cjc100_1699"
    INDEX 01 01:17:41
  TRACK 33 AUDIO
    TITLE "2:cjc100_1700"
    INDEX 01 01:19:13
  TRACK 34 AUDIO
    TITLE "0:"
    INDEX 01 01:23:24
  TRACK 35 AUDIO
    TITLE "2:cjc100_1701"
    INDEX 01 01:24:02
  TRACK 36 AUDIO
    TITLE "2:cjc100_1702"
    INDEX 01 01:25:11
  TRACK 37 AUDIO
    TITLE "0:"
    INDEX 01 01:32:15
  TRACK 38 AUDIO
    TITLE "2:cjc100_1703"
    INDEX 01 01:32:62
  TRACK 39 AUDIO
    TITLE "2:cjc100_1704"
    INDEX 01 01:34:10
  TRACK 40 AUDIO
    TITLE "0:"
    INDEX 01 01:39:29
  TRACK 41 AUDIO
    TITLE "2:cjc100_1705"
    INDEX 01 01:40:03
  TRACK 42 AUDIO
    TITLE "2:cjc100_1706"
    INDEX 01 01:41:32
  TRACK 43 AUDIO
    TITLE "0:"
    INDEX 01 01:46:55
  TRACK 44 AUDIO
    TITLE "2:cjc100_1707"
    INDEX 01 01:47:23
  TRACK 45 AUDIO
    TITLE "2:cjc100_1708"
    INDEX 01 01:48:44
  TRACK 46 AUDIO
    TITLE "0:"
    INDEX 01 01:53:43
  TRACK 47 AUDIO
    TITLE "2:cjc100_1709"
    INDEX 01 01:54:11
  TRACK 48 AUDIO
    TITLE "2:cjc100_1710"
    INDEX 01 01:55:24
  TRACK 49 AUDIO
    TITLE "0:"
    INDEX 01 01:59:28
  TRACK 50 AUDIO
    TITLE "2:cjc100_1711"
    INDEX 01 02:00:02
  TRACK 51 AUDIO
    TITLE "2:cjc100_1712"
    INDEX 01 02:01:29
  TRACK 52 AUDIO
    TITLE "0:"
    INDEX 01 02:05:74
  TRACK 53 AUDIO
    TITLE "2:cjc100_1713"
    INDEX 01 02:06:40
  TRACK 54 AUDIO
    TITLE "2:cjc100_1714"
    INDEX 01 02:08:19
  TRACK 55 AUDIO
    TITLE "0:"
    INDEX 01 02:15:03
  TRACK 56 AUDIO
    TITLE "2:cjc100_1715"
    INDEX 01 02:15:54
  TRACK 57 AUDIO
    TITLE "2:cjc100_1716"
    INDEX 01 02:17:22
  TRACK 58 AUDIO
    TITLE "0:"
    INDEX 01 02:22:06
  TRACK 59 AUDIO
    TITLE "2:cjc100_1717"
    INDEX 01 02:22:39
  TRACK 60 AUDIO
    TITLE "2:cjc100_1718"
    INDEX 01 02:23:58
  TRACK 61 AUDIO
    TITLE "0:"
    INDEX 01 02:29:02
